<svg xmlns="http://www.w3.org/2000/svg" viewBox="0 0 280 280" role="img" aria-labelledby="title desc">
  <title id="title">Pokemon placeholder</title>
  <desc id="desc">Soft placeholder art for a missing Pokemon image.</desc>
  <defs>
    <linearGradient id="bg" x1="0%" y1="0%" x2="100%" y2="100%">
      <stop offset="0%" stop-color="#ffe7ee" />
      <stop offset="100%" stop-color="#fff1c9" />
    </linearGradient>
  </defs>
  <rect width="280" height="280" rx="56" fill="url(#bg)" />
  <circle cx="140" cy="112" r="70" fill="#fff9fb" opacity="0.95" />
  <circle cx="140" cy="112" r="58" fill="#ffd0da" opacity="0.72" />
  <path
    d="M140 71c-27 0-49 18-49 41 0 15 10 29 24 37-18 4-31 17-31 33v26h112v-26c0-16-13-29-31-33 14-8 24-22 24-37 0-23-22-41-49-41Z"
    fill="#fffdfb"
  />
  <path
    d="M116 108c5 0 9-4 9-9s-4-9-9-9-9 4-9 9 4 9 9 9Zm48 0c5 0 9-4 9-9s-4-9-9-9-9 4-9 9 4 9 9 9Z"
    fill="#5e556c"
  />
  <path d="M118 133c11 11 33 11 44 0" fill="none" stroke="#7c708d" stroke-linecap="round" stroke-width="8" />
  <text
    x="140"
    y="241"
    text-anchor="middle"
    font-family="Trebuchet MS, Avenir, sans-serif"
    font-size="18"
    fill="#7f6576"
  >
    Add your local artwork
  </text>
</svg>
